<svg width="213" height="100" viewBox="0 0 213 100" fill="none" xmlns="http://www.w3.org/2000/svg">
<path d="M24.04 16.5H20.9576C20.7753 15.6134 20.4563 14.8345 20.0005 14.1634C19.5531 13.4922 19.0062 12.9287 18.3599 12.473C17.7219 12.009 17.0134 11.661 16.2346 11.429C15.4557 11.197 14.6436 11.081 13.7985 11.081C12.2573 11.081 10.8611 11.4704 9.60991 12.2493C8.36701 13.0282 7.37684 14.1758 6.63938 15.6921C5.91022 17.2085 5.54563 19.0687 5.54563 21.2727C5.54563 23.4768 5.91022 25.337 6.63938 26.8533C7.37684 28.3697 8.36701 29.5173 9.60991 30.2962C10.8611 31.075 12.2573 31.4645 13.7985 31.4645C14.6436 31.4645 15.4557 31.3485 16.2346 31.1165C17.0134 30.8845 17.7219 30.5406 18.3599 30.0849C19.0062 29.6209 19.5531 29.0533 20.0005 28.3821C20.4563 27.7027 20.7753 26.9238 20.9576 26.0455H24.04C23.8079 27.3464 23.3854 28.5105 22.7722 29.538C22.159 30.5655 21.3967 31.4396 20.4853 32.1605C19.5738 32.8731 18.5505 33.4158 17.4153 33.7887C16.2884 34.1616 15.0828 34.348 13.7985 34.348C11.6275 34.348 9.69691 33.8177 8.00657 32.7571C6.31623 31.6965 4.98633 30.1884 4.01687 28.233C3.04741 26.2775 2.56268 23.9574 2.56268 21.2727C2.56268 18.5881 3.04741 16.268 4.01687 14.3125C4.98633 12.357 6.31623 10.849 8.00657 9.78835C9.69691 8.72775 11.6275 8.19744 13.7985 8.19744C15.0828 8.19744 16.2884 8.38388 17.4153 8.75675C18.5505 9.12962 19.5738 9.67649 20.4853 10.3974C21.3967 11.11 22.159 11.98 22.7722 13.0075C23.3854 14.0266 23.8079 15.1908 24.04 16.5ZM31.5564 8.54545V34H28.6231V8.54545H31.5564ZM36.9288 34V14.9091H39.862V34H36.9288ZM38.4203 11.7273C37.8485 11.7273 37.3555 11.5326 36.9412 11.1431C36.5352 10.7537 36.3322 10.2855 36.3322 9.73864C36.3322 9.19176 36.5352 8.7236 36.9412 8.33416C37.3555 7.94472 37.8485 7.75 38.4203 7.75C38.992 7.75 39.4809 7.94472 39.8869 8.33416C40.3012 8.7236 40.5083 9.19176 40.5083 9.73864C40.5083 10.2855 40.3012 10.7537 39.8869 11.1431C39.4809 11.5326 38.992 11.7273 38.4203 11.7273ZM45.2345 34V14.9091H48.0683V17.892H48.3169C48.7146 16.8729 49.3567 16.0816 50.2433 15.5181C51.1299 14.9464 52.1947 14.6605 53.4376 14.6605C54.6971 14.6605 55.7452 14.9464 56.5821 15.5181C57.4273 16.0816 58.086 16.8729 58.5583 17.892H58.7572C59.2461 16.906 59.9794 16.123 60.9571 15.543C61.9349 14.9547 63.1073 14.6605 64.4745 14.6605C66.1814 14.6605 67.5776 15.195 68.6631 16.2638C69.7486 17.3245 70.2913 18.9775 70.2913 21.223V34H67.358V21.223C67.358 19.8144 66.9727 18.8076 66.2021 18.2028C65.4316 17.5979 64.5242 17.2955 63.4802 17.2955C62.1379 17.2955 61.098 17.7015 60.3605 18.5135C59.6231 19.3172 59.2544 20.3364 59.2544 21.571V34H56.2714V20.9247C56.2714 19.8393 55.9192 18.9651 55.2149 18.3022C54.5106 17.631 53.6033 17.2955 52.493 17.2955C51.7307 17.2955 51.0181 17.4985 50.3552 17.9045C49.7006 18.3105 49.1703 18.8739 48.7643 19.5948C48.3666 20.3074 48.1677 21.1319 48.1677 22.0682V34H45.2345ZM81.2723 34.4474C80.0625 34.4474 78.9646 34.2196 77.9786 33.7638C76.9926 33.2998 76.2095 32.6328 75.6295 31.7628C75.0495 30.8845 74.7595 29.8239 74.7595 28.581C74.7595 27.4872 74.9749 26.6006 75.4058 25.9212C75.8367 25.2334 76.4126 24.6948 77.1334 24.3054C77.8543 23.916 78.6498 23.6259 79.5198 23.4354C80.3981 23.2365 81.2806 23.0791 82.1672 22.9631C83.3272 22.8139 84.2677 22.7021 84.9885 22.6275C85.7177 22.5446 86.248 22.4079 86.5795 22.2173C86.9192 22.0268 87.089 21.6953 87.089 21.223V21.1236C87.089 19.8973 86.7535 18.9444 86.0823 18.2649C85.4194 17.5855 84.4127 17.2457 83.0621 17.2457C81.6617 17.2457 80.5638 17.5523 79.7684 18.1655C78.9729 18.7786 78.4136 19.4332 78.0905 20.1293L75.3064 19.1349C75.8035 17.9749 76.4664 17.0717 77.295 16.4254C78.1319 15.7708 79.0434 15.3151 80.0294 15.0582C81.0237 14.7931 82.0015 14.6605 82.9626 14.6605C83.5758 14.6605 84.2801 14.7351 85.0756 14.8842C85.8793 15.0251 86.654 15.3192 87.3998 15.7667C88.1538 16.2141 88.7794 16.8894 89.2765 17.7926C89.7737 18.6958 90.0223 19.9055 90.0223 21.4219V34H87.089V31.4148H86.9399C86.741 31.8291 86.4096 32.2724 85.9456 32.7447C85.4816 33.217 84.8643 33.6188 84.0937 33.9503C83.3231 34.2817 82.3826 34.4474 81.2723 34.4474ZM81.7197 31.8125C82.8798 31.8125 83.8575 31.5846 84.653 31.1289C85.4567 30.6732 86.0616 30.0849 86.4676 29.364C86.8819 28.6431 87.089 27.8849 87.089 27.0895V24.4048C86.9648 24.554 86.6913 24.6907 86.2687 24.815C85.8544 24.931 85.3738 25.0346 84.827 25.1257C84.2884 25.2086 83.7622 25.2831 83.2485 25.3494C82.743 25.4074 82.3329 25.4571 82.018 25.4986C81.2557 25.598 80.5431 25.7596 79.8802 25.9833C79.2256 26.1987 78.6953 26.526 78.2893 26.9652C77.8916 27.3961 77.6927 27.9844 77.6927 28.7301C77.6927 29.7493 78.0698 30.5199 78.8238 31.0419C79.5861 31.5556 80.5514 31.8125 81.7197 31.8125ZM103.679 14.9091V17.3949H93.7852V14.9091H103.679ZM96.6687 10.3352H99.6019V28.5312C99.6019 29.3598 99.7221 29.9813 99.9624 30.3956C100.211 30.8016 100.526 31.075 100.907 31.2159C101.296 31.3485 101.707 31.4148 102.137 31.4148C102.461 31.4148 102.726 31.3982 102.933 31.3651C103.14 31.3236 103.306 31.2905 103.43 31.2656L104.027 33.9006C103.828 33.9751 103.55 34.0497 103.194 34.1243C102.838 34.2071 102.386 34.2486 101.839 34.2486C101.011 34.2486 100.199 34.0704 99.4031 33.7141C98.6159 33.3578 97.9613 32.8151 97.4393 32.0859C96.9255 31.3568 96.6687 30.437 96.6687 29.3267V10.3352ZM108.091 34V14.9091H111.024V34H108.091ZM109.582 11.7273C109.011 11.7273 108.518 11.5326 108.103 11.1431C107.697 10.7537 107.494 10.2855 107.494 9.73864C107.494 9.19176 107.697 8.7236 108.103 8.33416C108.518 7.94472 109.011 7.75 109.582 7.75C110.154 7.75 110.643 7.94472 111.049 8.33416C111.463 8.7236 111.67 9.19176 111.67 9.73864C111.67 10.2855 111.463 10.7537 111.049 11.1431C110.643 11.5326 110.154 11.7273 109.582 11.7273ZM115.85 34V31.7628L126.688 17.8423V17.6435H116.198V14.9091H130.466V17.2457L119.926 31.0668V31.2656H130.814V34H115.85ZM140.95 34.4474C139.74 34.4474 138.642 34.2196 137.656 33.7638C136.67 33.2998 135.887 32.6328 135.307 31.7628C134.727 30.8845 134.437 29.8239 134.437 28.581C134.437 27.4872 134.653 26.6006 135.084 25.9212C135.514 25.2334 136.09 24.6948 136.811 24.3054C137.532 23.916 138.328 23.6259 139.198 23.4354C140.076 23.2365 140.958 23.0791 141.845 22.9631C143.005 22.8139 143.945 22.7021 144.666 22.6275C145.395 22.5446 145.926 22.4079 146.257 22.2173C146.597 22.0268 146.767 21.6953 146.767 21.223V21.1236C146.767 19.8973 146.431 18.9444 145.76 18.2649C145.097 17.5855 144.09 17.2457 142.74 17.2457C141.339 17.2457 140.242 17.5523 139.446 18.1655C138.651 18.7786 138.091 19.4332 137.768 20.1293L134.984 19.1349C135.481 17.9749 136.144 17.0717 136.973 16.4254C137.81 15.7708 138.721 15.3151 139.707 15.0582C140.701 14.7931 141.679 14.6605 142.64 14.6605C143.254 14.6605 143.958 14.7351 144.753 14.8842C145.557 15.0251 146.332 15.3192 147.078 15.7667C147.832 16.2141 148.457 16.8894 148.954 17.7926C149.451 18.6958 149.7 19.9055 149.7 21.4219V34H146.767V31.4148H146.618C146.419 31.8291 146.087 32.2724 145.623 32.7447C145.159 33.217 144.542 33.6188 143.771 33.9503C143.001 34.2817 142.06 34.4474 140.95 34.4474ZM141.397 31.8125C142.557 31.8125 143.535 31.5846 144.331 31.1289C145.134 30.6732 145.739 30.0849 146.145 29.364C146.56 28.6431 146.767 27.8849 146.767 27.0895V24.4048C146.642 24.554 146.369 24.6907 145.946 24.815C145.532 24.931 145.052 25.0346 144.505 25.1257C143.966 25.2086 143.44 25.2831 142.926 25.3494C142.421 25.4074 142.011 25.4571 141.696 25.4986C140.933 25.598 140.221 25.7596 139.558 25.9833C138.903 26.1987 138.373 26.526 137.967 26.9652C137.569 27.3961 137.37 27.9844 137.37 28.7301C137.37 29.7493 137.747 30.5199 138.502 31.0419C139.264 31.5556 140.229 31.8125 141.397 31.8125ZM162.809 34.3977C161.02 34.3977 159.479 33.9751 158.186 33.13C156.893 32.2848 155.899 31.1206 155.203 29.6374C154.507 28.1542 154.159 26.4598 154.159 24.554C154.159 22.6151 154.515 20.904 155.228 19.4208C155.949 17.9293 156.951 16.7652 158.236 15.9283C159.528 15.0831 161.036 14.6605 162.76 14.6605C164.102 14.6605 165.312 14.9091 166.389 15.4062C167.466 15.9034 168.349 16.5994 169.036 17.4943C169.724 18.3892 170.151 19.4332 170.317 20.6264H167.383C167.16 19.7564 166.662 18.9858 165.892 18.3146C165.13 17.6352 164.102 17.2955 162.809 17.2955C161.666 17.2955 160.663 17.5937 159.802 18.1903C158.948 18.7786 158.281 19.6114 157.801 20.6886C157.328 21.7575 157.092 23.0128 157.092 24.4545C157.092 25.9295 157.324 27.2138 157.788 28.3075C158.26 29.4013 158.923 30.2506 159.777 30.8555C160.639 31.4603 161.649 31.7628 162.809 31.7628C163.572 31.7628 164.264 31.6302 164.885 31.3651C165.507 31.0999 166.033 30.7188 166.464 30.2216C166.894 29.7244 167.201 29.1278 167.383 28.4318H170.317C170.151 29.5587 169.741 30.5737 169.086 31.4769C168.44 32.3718 167.582 33.0844 166.513 33.6147C165.453 34.1367 164.218 34.3977 162.809 34.3977ZM161.417 33.9006H163.854L163.655 34.8949C164.301 34.9943 164.893 35.2636 165.432 35.7028C165.971 36.1502 166.24 36.8587 166.24 37.8281C166.24 38.897 165.797 39.767 164.91 40.4382C164.032 41.1177 162.735 41.4574 161.02 41.4574L160.92 39.5185C161.691 39.5185 162.329 39.3942 162.834 39.1456C163.348 38.9053 163.605 38.4993 163.605 37.9276C163.605 37.3558 163.394 36.9664 162.971 36.7592C162.548 36.5521 161.865 36.4112 160.92 36.3366L161.417 33.9006ZM180.222 34.4474C179.013 34.4474 177.915 34.2196 176.929 33.7638C175.943 33.2998 175.16 32.6328 174.58 31.7628C174 30.8845 173.71 29.8239 173.71 28.581C173.71 27.4872 173.925 26.6006 174.356 25.9212C174.787 25.2334 175.363 24.6948 176.084 24.3054C176.805 23.916 177.6 23.6259 178.47 23.4354C179.348 23.2365 180.231 23.0791 181.117 22.9631C182.277 22.8139 183.218 22.7021 183.939 22.6275C184.668 22.5446 185.198 22.4079 185.53 22.2173C185.869 22.0268 186.039 21.6953 186.039 21.223V21.1236C186.039 19.8973 185.704 18.9444 185.032 18.2649C184.37 17.5855 183.363 17.2457 182.012 17.2457C180.612 17.2457 179.514 17.5523 178.719 18.1655C177.923 18.7786 177.364 19.4332 177.041 20.1293L174.257 19.1349C174.754 17.9749 175.417 17.0717 176.245 16.4254C177.082 15.7708 177.994 15.3151 178.98 15.0582C179.974 14.7931 180.952 14.6605 181.913 14.6605C182.526 14.6605 183.23 14.7351 184.026 14.8842C184.829 15.0251 185.604 15.3192 186.35 15.7667C187.104 16.2141 187.73 16.8894 188.227 17.7926C188.724 18.6958 188.972 19.9055 188.972 21.4219V34H186.039V31.4148H185.89C185.691 31.8291 185.36 32.2724 184.896 32.7447C184.432 33.217 183.814 33.6188 183.044 33.9503C182.273 34.2817 181.333 34.4474 180.222 34.4474ZM180.67 31.8125C181.83 31.8125 182.808 31.5846 183.603 31.1289C184.407 30.6732 185.012 30.0849 185.418 29.364C185.832 28.6431 186.039 27.8849 186.039 27.0895V24.4048C185.915 24.554 185.642 24.6907 185.219 24.815C184.805 24.931 184.324 25.0346 183.777 25.1257C183.239 25.2086 182.712 25.2831 182.199 25.3494C181.693 25.4074 181.283 25.4571 180.968 25.4986C180.206 25.598 179.493 25.7596 178.83 25.9833C178.176 26.1987 177.646 26.526 177.24 26.9652C176.842 27.3961 176.643 27.9844 176.643 28.7301C176.643 29.7493 177.02 30.5199 177.774 31.0419C178.536 31.5556 179.502 31.8125 180.67 31.8125ZM178.284 12.6222L175.997 12.5227C175.997 11.255 176.357 10.2192 177.078 9.41548C177.807 8.60346 178.706 8.19744 179.775 8.19744C180.247 8.19744 180.666 8.2803 181.03 8.44602C181.395 8.60346 181.743 8.78575 182.074 8.9929C182.406 9.20005 182.746 9.38648 183.094 9.5522C183.45 9.70963 183.852 9.78835 184.299 9.78835C184.771 9.78835 185.169 9.60606 185.492 9.24148C185.824 8.86861 185.99 8.42116 185.99 7.89915L188.227 8.09801C188.227 9.39062 187.862 10.4181 187.133 11.1804C186.412 11.9427 185.517 12.3239 184.448 12.3239C183.877 12.3239 183.404 12.2451 183.031 12.0877C182.659 11.922 182.327 11.7356 182.037 11.5284C181.747 11.3213 181.441 11.139 181.117 10.9815C180.794 10.8158 180.396 10.733 179.924 10.733C179.452 10.733 179.058 10.9194 178.743 11.2923C178.437 11.6568 178.284 12.1001 178.284 12.6222ZM202.082 34.3977C200.358 34.3977 198.846 33.9876 197.545 33.1673C196.253 32.3469 195.242 31.1993 194.513 29.7244C193.792 28.2495 193.431 26.526 193.431 24.554C193.431 22.5653 193.792 20.8294 194.513 19.3462C195.242 17.863 196.253 16.7113 197.545 15.891C198.846 15.0707 200.358 14.6605 202.082 14.6605C203.805 14.6605 205.313 15.0707 206.606 15.891C207.907 16.7113 208.918 17.863 209.639 19.3462C210.368 20.8294 210.733 22.5653 210.733 24.554C210.733 26.526 210.368 28.2495 209.639 29.7244C208.918 31.1993 207.907 32.3469 206.606 33.1673C205.313 33.9876 203.805 34.3977 202.082 34.3977ZM202.082 31.7628C203.391 31.7628 204.468 31.4272 205.313 30.756C206.159 30.0849 206.784 29.2024 207.19 28.1087C207.596 27.0149 207.799 25.83 207.799 24.554C207.799 23.2779 207.596 22.0889 207.19 20.9869C206.784 19.8848 206.159 18.9941 205.313 18.3146C204.468 17.6352 203.391 17.2955 202.082 17.2955C200.773 17.2955 199.696 17.6352 198.85 18.3146C198.005 18.9941 197.38 19.8848 196.974 20.9869C196.568 22.0889 196.365 23.2779 196.365 24.554C196.365 25.83 196.568 27.0149 196.974 28.1087C197.38 29.2024 198.005 30.0849 198.85 30.756C199.696 31.4272 200.773 31.7628 202.082 31.7628Z" fill="white"/>
<path d="M43.5477 72.3636C43.4412 71.464 43.0091 70.7656 42.2516 70.2685C41.494 69.7713 40.5648 69.5227 39.4639 69.5227C38.659 69.5227 37.9547 69.6529 37.351 69.9134C36.7532 70.1738 36.2856 70.5318 35.9483 70.9876C35.6168 71.4433 35.4511 71.9612 35.4511 72.5412C35.4511 73.0265 35.5665 73.4438 35.7974 73.793C36.0341 74.1362 36.336 74.4233 36.7029 74.6541C37.0699 74.879 37.4546 75.0655 37.857 75.2134C38.2595 75.3555 38.6294 75.4709 38.9668 75.5597L40.8133 76.0568C41.2868 76.1811 41.8136 76.3527 42.3936 76.5717C42.9795 76.7907 43.5388 77.0896 44.0715 77.4684C44.6101 77.8413 45.054 78.3207 45.4032 78.9066C45.7524 79.4925 45.927 80.2116 45.927 81.0639C45.927 82.0464 45.6695 82.9342 45.1546 83.7273C44.6456 84.5204 43.8999 85.1507 42.9174 85.6183C41.9408 86.0858 40.7542 86.3196 39.3574 86.3196C38.0553 86.3196 36.9278 86.1095 35.9749 85.6893C35.028 85.2691 34.2822 84.6831 33.7377 83.9315C33.1991 83.1798 32.8943 82.3068 32.8233 81.3125H35.096C35.1552 81.9991 35.386 82.5672 35.7885 83.017C36.1969 83.4609 36.7118 83.7924 37.3332 84.0114C37.9606 84.2244 38.6353 84.331 39.3574 84.331C40.1978 84.331 40.9524 84.1948 41.6212 83.9226C42.29 83.6444 42.8197 83.2597 43.2104 82.7685C43.601 82.2713 43.7963 81.6913 43.7963 81.0284C43.7963 80.4247 43.6276 79.9335 43.2903 79.5547C42.9529 79.1759 42.509 78.8681 41.9586 78.6314C41.4082 78.3946 40.8133 78.1875 40.1741 78.0099L37.9369 77.3707C36.5165 76.9624 35.3919 76.3794 34.5633 75.6218C33.7347 74.8642 33.3204 73.8729 33.3204 72.6477C33.3204 71.6297 33.5957 70.742 34.1461 69.9844C34.7024 69.2209 35.4482 68.629 36.3833 68.2088C37.3244 67.7827 38.3749 67.5696 39.5349 67.5696C40.7068 67.5696 41.7485 67.7797 42.6599 68.1999C43.5714 68.6142 44.2935 69.1824 44.8261 69.9045C45.3647 70.6265 45.6488 71.4463 45.6784 72.3636H43.5477ZM53.2756 86.3196C52.4115 86.3196 51.6273 86.1568 50.923 85.8313C50.2187 85.4999 49.6594 85.0234 49.2451 84.402C48.8308 83.7746 48.6236 83.017 48.6236 82.1293C48.6236 81.348 48.7775 80.7147 49.0853 80.2294C49.393 79.7382 49.8044 79.3535 50.3193 79.0753C50.8342 78.7971 51.4024 78.59 52.0238 78.4538C52.6512 78.3118 53.2815 78.1993 53.9148 78.1165C54.7434 78.0099 55.4152 77.93 55.9301 77.8768C56.4509 77.8176 56.8297 77.7199 57.0665 77.5838C57.3091 77.4477 57.4304 77.2109 57.4304 76.8736V76.8026C57.4304 75.9266 57.1907 75.246 56.7113 74.7607C56.2379 74.2753 55.5187 74.0327 54.554 74.0327C53.5538 74.0327 52.7696 74.2517 52.2014 74.6896C51.6332 75.1276 51.2337 75.5952 51.0029 76.0923L49.0142 75.3821C49.3694 74.5535 49.8428 73.9084 50.4347 73.4467C51.0325 72.9792 51.6835 72.6536 52.3878 72.4702C53.0981 72.2808 53.7964 72.1861 54.483 72.1861C54.921 72.1861 55.4241 72.2393 55.9922 72.3459C56.5663 72.4465 57.1197 72.6566 57.6524 72.9762C58.191 73.2958 58.6378 73.7782 58.9929 74.4233C59.3481 75.0684 59.5256 75.9325 59.5256 77.0156V86H57.4304V84.1534H57.3239C57.1819 84.4493 56.9451 84.766 56.6137 85.1033C56.2822 85.4407 55.8413 85.7277 55.2909 85.9645C54.7405 86.2012 54.0687 86.3196 53.2756 86.3196ZM53.5952 84.4375C54.4238 84.4375 55.1222 84.2747 55.6904 83.9492C56.2645 83.6237 56.6965 83.2035 56.9866 82.6886C57.2825 82.1737 57.4304 81.6321 57.4304 81.0639V79.1463C57.3417 79.2528 57.1464 79.3505 56.8445 79.4393C56.5486 79.5221 56.2053 79.5961 55.8147 79.6612C55.43 79.7204 55.0541 79.7737 54.6872 79.821C54.3262 79.8625 54.0332 79.898 53.8083 79.9276C53.2638 79.9986 52.7548 80.114 52.2813 80.2738C51.8137 80.4277 51.4349 80.6615 51.1449 80.9751C50.8608 81.2829 50.7188 81.7031 50.7188 82.2358C50.7188 82.9638 50.9881 83.5142 51.5267 83.8871C52.0712 84.254 52.7607 84.4375 53.5952 84.4375ZM63.3497 86V72.3636H65.3739V74.4943H65.5514C65.8355 73.7663 66.2942 73.2011 66.9275 72.7987C67.5608 72.3903 68.3213 72.1861 69.2091 72.1861C70.1087 72.1861 70.8574 72.3903 71.4552 72.7987C72.0589 73.2011 72.5294 73.7663 72.8668 74.4943H73.0088C73.358 73.79 73.8818 73.2307 74.5802 72.8164C75.2786 72.3962 76.1161 72.1861 77.0926 72.1861C78.3119 72.1861 79.3091 72.5678 80.0845 73.3313C80.8598 74.0889 81.2475 75.2696 81.2475 76.8736V86H79.1523V76.8736C79.1523 75.8674 78.8771 75.1483 78.3267 74.7163C77.7762 74.2842 77.1282 74.0682 76.3824 74.0682C75.4236 74.0682 74.6808 74.3582 74.1541 74.9382C73.6273 75.5123 73.3639 76.2403 73.3639 77.1222V86H71.2333V76.6605C71.2333 75.8852 70.9817 75.2608 70.4786 74.7873C69.9756 74.3079 69.3275 74.0682 68.5344 74.0682C67.9899 74.0682 67.4809 74.2132 67.0074 74.5032C66.5398 74.7932 66.1611 75.1957 65.871 75.7106C65.587 76.2196 65.4449 76.8085 65.4449 77.4773V86H63.3497ZM93.672 80.4247V72.3636H95.7672V86H93.672V83.6918H93.53C93.2104 84.3842 92.7132 84.9731 92.0385 85.4585C91.3638 85.9379 90.5115 86.1776 89.4817 86.1776C88.6294 86.1776 87.8718 85.9911 87.2089 85.6183C86.5461 85.2395 86.0252 84.6713 85.6464 83.9137C85.2677 83.1502 85.0783 82.1884 85.0783 81.0284V72.3636H87.1734V80.8864C87.1734 81.8807 87.4516 82.6738 88.0079 83.2656C88.5702 83.8575 89.2864 84.1534 90.1564 84.1534C90.6772 84.1534 91.2069 84.0202 91.7455 83.7539C92.29 83.4876 92.7458 83.0792 93.1127 82.5288C93.4856 81.9783 93.672 81.277 93.672 80.4247ZM105.322 86.2841C104.008 86.2841 102.875 85.9941 101.922 85.4141C100.975 84.8281 100.244 84.0114 99.7289 82.9638C99.2199 81.9103 98.9654 80.6851 98.9654 79.2884C98.9654 77.8916 99.2199 76.6605 99.7289 75.5952C100.244 74.5239 100.96 73.6894 101.877 73.0916C102.801 72.4879 103.878 72.1861 105.109 72.1861C105.819 72.1861 106.52 72.3045 107.213 72.5412C107.905 72.7779 108.536 73.1626 109.104 73.6953C109.672 74.2221 110.125 74.9205 110.462 75.7905C110.8 76.6605 110.968 77.7318 110.968 79.0043V79.892H100.457V78.081H108.838C108.838 77.3116 108.684 76.625 108.376 76.0213C108.074 75.4176 107.642 74.9412 107.08 74.592C106.523 74.2428 105.866 74.0682 105.109 74.0682C104.274 74.0682 103.552 74.2753 102.943 74.6896C102.339 75.098 101.874 75.6307 101.549 76.2876C101.223 76.9446 101.061 77.6489 101.061 78.4006V79.608C101.061 80.6378 101.238 81.5108 101.593 82.2269C101.954 82.9371 102.454 83.4787 103.094 83.8516C103.733 84.2185 104.476 84.402 105.322 84.402C105.872 84.402 106.37 84.325 106.813 84.1712C107.263 84.0114 107.651 83.7746 107.976 83.4609C108.302 83.1413 108.553 82.7448 108.731 82.2713L110.755 82.8395C110.542 83.526 110.184 84.1297 109.681 84.6506C109.178 85.1655 108.556 85.5679 107.817 85.858C107.077 86.142 106.245 86.2841 105.322 86.2841ZM116.251 67.8182V86H114.155V67.8182H116.251ZM137.347 72.3636C137.24 71.464 136.808 70.7656 136.05 70.2685C135.293 69.7713 134.364 69.5227 133.263 69.5227C132.458 69.5227 131.754 69.6529 131.15 69.9134C130.552 70.1738 130.084 70.5318 129.747 70.9876C129.416 71.4433 129.25 71.9612 129.25 72.5412C129.25 73.0265 129.365 73.4438 129.596 73.793C129.833 74.1362 130.135 74.4233 130.502 74.6541C130.869 74.879 131.253 75.0655 131.656 75.2134C132.058 75.3555 132.428 75.4709 132.766 75.5597L134.612 76.0568C135.086 76.1811 135.612 76.3527 136.192 76.5717C136.778 76.7907 137.338 77.0896 137.87 77.4684C138.409 77.8413 138.853 78.3207 139.202 78.9066C139.551 79.4925 139.726 80.2116 139.726 81.0639C139.726 82.0464 139.468 82.9342 138.953 83.7273C138.444 84.5204 137.699 85.1507 136.716 85.6183C135.74 86.0858 134.553 86.3196 133.156 86.3196C131.854 86.3196 130.727 86.1095 129.774 85.6893C128.827 85.2691 128.081 84.6831 127.537 83.9315C126.998 83.1798 126.693 82.3068 126.622 81.3125H128.895C128.954 81.9991 129.185 82.5672 129.587 83.017C129.996 83.4609 130.511 83.7924 131.132 84.0114C131.759 84.2244 132.434 84.331 133.156 84.331C133.997 84.331 134.751 84.1948 135.42 83.9226C136.089 83.6444 136.619 83.2597 137.009 82.7685C137.4 82.2713 137.595 81.6913 137.595 81.0284C137.595 80.4247 137.426 79.9335 137.089 79.5547C136.752 79.1759 136.308 78.8681 135.757 78.6314C135.207 78.3946 134.612 78.1875 133.973 78.0099L131.736 77.3707C130.315 76.9624 129.191 76.3794 128.362 75.6218C127.534 74.8642 127.119 73.8729 127.119 72.6477C127.119 71.6297 127.394 70.742 127.945 69.9844C128.501 69.2209 129.247 68.629 130.182 68.2088C131.123 67.7827 132.174 67.5696 133.334 67.5696C134.506 67.5696 135.547 67.7797 136.459 68.1999C137.37 68.6142 138.092 69.1824 138.625 69.9045C139.164 70.6265 139.448 71.4463 139.477 72.3636H137.347ZM143.062 86V72.3636H145.157V86H143.062ZM144.127 70.0909C143.719 70.0909 143.366 69.9518 143.071 69.6737C142.781 69.3955 142.636 69.0611 142.636 68.6705C142.636 68.2798 142.781 67.9454 143.071 67.6673C143.366 67.3891 143.719 67.25 144.127 67.25C144.535 67.25 144.885 67.3891 145.175 67.6673C145.471 67.9454 145.618 68.2798 145.618 68.6705C145.618 69.0611 145.471 69.3955 145.175 69.6737C144.885 69.9518 144.535 70.0909 144.127 70.0909ZM151.089 67.8182V86H148.994V67.8182H151.089ZM166.077 72.3636L161.035 86H158.904L153.862 72.3636H156.134L159.898 83.2301H160.041L163.805 72.3636H166.077ZM172.441 86.3196C171.577 86.3196 170.792 86.1568 170.088 85.8313C169.384 85.4999 168.824 85.0234 168.41 84.402C167.996 83.7746 167.789 83.017 167.789 82.1293C167.789 81.348 167.943 80.7147 168.25 80.2294C168.558 79.7382 168.969 79.3535 169.484 79.0753C169.999 78.7971 170.567 78.59 171.189 78.4538C171.816 78.3118 172.447 78.1993 173.08 78.1165C173.908 78.0099 174.58 77.93 175.095 77.8768C175.616 77.8176 175.995 77.7199 176.231 77.5838C176.474 77.4477 176.595 77.2109 176.595 76.8736V76.8026C176.595 75.9266 176.356 75.246 175.876 74.7607C175.403 74.2753 174.684 74.0327 173.719 74.0327C172.719 74.0327 171.935 74.2517 171.366 74.6896C170.798 75.1276 170.399 75.5952 170.168 76.0923L168.179 75.3821C168.534 74.5535 169.008 73.9084 169.6 73.4467C170.198 72.9792 170.849 72.6536 171.553 72.4702C172.263 72.2808 172.961 72.1861 173.648 72.1861C174.086 72.1861 174.589 72.2393 175.157 72.3459C175.731 72.4465 176.285 72.6566 176.817 72.9762C177.356 73.2958 177.803 73.7782 178.158 74.4233C178.513 75.0684 178.691 75.9325 178.691 77.0156V86H176.595V84.1534H176.489C176.347 84.4493 176.11 84.766 175.779 85.1033C175.447 85.4407 175.006 85.7277 174.456 85.9645C173.905 86.2012 173.234 86.3196 172.441 86.3196ZM172.76 84.4375C173.589 84.4375 174.287 84.2747 174.855 83.9492C175.43 83.6237 175.862 83.2035 176.152 82.6886C176.448 82.1737 176.595 81.6321 176.595 81.0639V79.1463C176.507 79.2528 176.311 79.3505 176.01 79.4393C175.714 79.5221 175.37 79.5961 174.98 79.6612C174.595 79.7204 174.219 79.7737 173.852 79.821C173.491 79.8625 173.198 79.898 172.973 79.9276C172.429 79.9986 171.92 80.114 171.446 80.2738C170.979 80.4277 170.6 80.6615 170.31 80.9751C170.026 81.2829 169.884 81.7031 169.884 82.2358C169.884 82.9638 170.153 83.5142 170.692 83.8871C171.236 84.254 171.926 84.4375 172.76 84.4375Z" fill="#DC1637"/>
</svg>
