<svg width="152" height="96" viewBox="0 0 152 96" fill="none" xmlns="http://www.w3.org/2000/svg">
<path d="M65.3474 21.7273C65.1343 19.928 64.2702 18.5312 62.7551 17.5369C61.2399 16.5426 59.3815 16.0455 57.1798 16.0455C55.5699 16.0455 54.1613 16.3059 52.9539 16.8267C51.7584 17.3475 50.8232 18.0637 50.1485 18.9751C49.4856 19.8866 49.1542 20.9223 49.1542 22.0824C49.1542 23.053 49.385 23.8875 49.8467 24.5859C50.3202 25.2725 50.9239 25.8466 51.6578 26.3082C52.3917 26.758 53.1611 27.1309 53.966 27.4268C54.7709 27.7109 55.5107 27.9418 56.1855 28.1193L59.8786 29.1136C60.8256 29.3622 61.8791 29.7055 63.0392 30.1435C64.211 30.5814 65.3296 31.1792 66.395 31.9368C67.4722 32.6825 68.3599 33.6413 69.0583 34.8132C69.7567 35.9851 70.1059 37.4233 70.1059 39.1278C70.1059 41.0928 69.591 42.8684 68.5612 44.4545C67.5432 46.0407 66.0517 47.3014 64.0867 48.2365C62.1336 49.1716 59.7603 49.6392 56.9667 49.6392C54.3625 49.6392 52.1076 49.219 50.2018 48.3786C48.3079 47.5381 46.8164 46.3662 45.7274 44.8629C44.6502 43.3596 44.0406 41.6136 43.8985 39.625H48.444C48.5624 40.9981 49.024 42.1345 49.8289 43.0341C50.6457 43.9219 51.6755 44.5848 52.9184 45.0227C54.1731 45.4489 55.5226 45.6619 56.9667 45.6619C58.6476 45.6619 60.1568 45.3897 61.4944 44.8452C62.832 44.2888 63.8914 43.5194 64.6727 42.5369C65.4539 41.5426 65.8445 40.3826 65.8445 39.0568C65.8445 37.8494 65.5072 36.867 64.8325 36.1094C64.1578 35.3518 63.27 34.7363 62.1691 34.2628C61.0683 33.7893 59.8786 33.375 58.6002 33.0199L54.1258 31.7415C51.2849 30.9247 49.0358 29.7588 47.3786 28.2436C45.7214 26.7285 44.8928 24.7457 44.8928 22.2955C44.8928 20.2595 45.4433 18.4839 46.5441 16.9688C47.6568 15.4418 49.1483 14.258 51.0186 13.4176C52.9007 12.5653 55.0017 12.1392 57.3218 12.1392C59.6656 12.1392 61.7489 12.5594 63.5718 13.3999C65.3947 14.2285 66.8389 15.3648 67.9042 16.8089C68.9814 18.2531 69.5496 19.8925 69.6088 21.7273H65.3474Z" fill="#DC1637"/>
<path d="M105.347 21.7273C105.134 19.928 104.27 18.5312 102.755 17.5369C101.24 16.5426 99.3815 16.0455 97.1798 16.0455C95.5699 16.0455 94.1613 16.3059 92.9539 16.8267C91.7584 17.3475 90.8232 18.0637 90.1485 18.9751C89.4856 19.8866 89.1542 20.9223 89.1542 22.0824C89.1542 23.053 89.385 23.8875 89.8467 24.5859C90.3202 25.2725 90.9239 25.8466 91.6578 26.3082C92.3917 26.758 93.1611 27.1309 93.966 27.4268C94.7709 27.7109 95.5107 27.9418 96.1855 28.1193L99.8786 29.1136C100.826 29.3622 101.879 29.7055 103.039 30.1435C104.211 30.5814 105.33 31.1792 106.395 31.9368C107.472 32.6825 108.36 33.6413 109.058 34.8132C109.757 35.9851 110.106 37.4233 110.106 39.1278C110.106 41.0928 109.591 42.8684 108.561 44.4545C107.543 46.0407 106.052 47.3014 104.087 48.2365C102.134 49.1716 99.7603 49.6392 96.9667 49.6392C94.3625 49.6392 92.1076 49.219 90.2018 48.3786C88.3079 47.5381 86.8164 46.3662 85.7274 44.8629C84.6502 43.3596 84.0406 41.6136 83.8985 39.625H88.444C88.5624 40.9981 89.024 42.1345 89.8289 43.0341C90.6457 43.9219 91.6755 44.5848 92.9184 45.0227C94.1731 45.4489 95.5226 45.6619 96.9667 45.6619C98.6476 45.6619 100.157 45.3897 101.494 44.8452C102.832 44.2888 103.891 43.5194 104.673 42.5369C105.454 41.5426 105.845 40.3826 105.845 39.0568C105.845 37.8494 105.507 36.867 104.832 36.1094C104.158 35.3518 103.27 34.7363 102.169 34.2628C101.068 33.7893 99.8786 33.375 98.6002 33.0199L94.1258 31.7415C91.2849 30.9247 89.0358 29.7588 87.3786 28.2436C85.7214 26.7285 84.8928 24.7457 84.8928 22.2955C84.8928 20.2595 85.4433 18.4839 86.5441 16.9688C87.6568 15.4418 89.1483 14.258 91.0186 13.4176C92.9007 12.5653 95.0017 12.1392 97.3218 12.1392C99.6656 12.1392 101.749 12.5594 103.572 13.3999C105.395 14.2285 106.839 15.3648 107.904 16.8089C108.981 18.2531 109.55 19.8925 109.609 21.7273H105.347Z" fill="#DC1637"/>
<path d="M17.1 77.5H14.8983C14.7681 76.8667 14.5402 76.3104 14.2147 75.831C13.8951 75.3516 13.5044 74.9491 13.0428 74.6236C12.5871 74.2921 12.081 74.0436 11.5247 73.8778C10.9683 73.7121 10.3883 73.6293 9.78462 73.6293C8.68377 73.6293 7.68649 73.9074 6.79279 74.4638C5.90501 75.0201 5.19774 75.8398 4.67099 76.9229C4.15015 78.006 3.88974 79.3348 3.88974 80.9091C3.88974 82.4834 4.15015 83.8121 4.67099 84.8952C5.19774 85.9783 5.90501 86.7981 6.79279 87.3544C7.68649 87.9107 8.68377 88.1889 9.78462 88.1889C10.3883 88.1889 10.9683 88.1061 11.5247 87.9403C12.081 87.7746 12.5871 87.529 13.0428 87.2035C13.5044 86.872 13.8951 86.4666 14.2147 85.9872C14.5402 85.5019 14.7681 84.9455 14.8983 84.3182H17.1C16.9342 85.2474 16.6324 86.079 16.1944 86.8129C15.7565 87.5468 15.2119 88.1712 14.5609 88.6861C13.9099 89.1951 13.1789 89.5827 12.3681 89.8491C11.5632 90.1154 10.702 90.2486 9.78462 90.2486C8.23396 90.2486 6.85494 89.8698 5.64755 89.1122C4.44016 88.3546 3.49023 87.2775 2.79776 85.8807C2.10529 84.4839 1.75906 82.8267 1.75906 80.9091C1.75906 78.9915 2.10529 77.3343 2.79776 75.9375C3.49023 74.5407 4.44016 73.4635 5.64755 72.706C6.85494 71.9484 8.23396 71.5696 9.78462 71.5696C10.702 71.5696 11.5632 71.7028 12.3681 71.9691C13.1789 72.2354 13.9099 72.6261 14.5609 73.141C15.2119 73.65 15.7565 74.2714 16.1944 75.0053C16.6324 75.7333 16.9342 76.5649 17.1 77.5ZM22.4688 71.8182V90H20.3737V71.8182H22.4688ZM26.3063 90V76.3636H28.4015V90H26.3063ZM27.3716 74.0909C26.9632 74.0909 26.6111 73.9518 26.3152 73.6737C26.0252 73.3955 25.8801 73.0611 25.8801 72.6705C25.8801 72.2798 26.0252 71.9454 26.3152 71.6673C26.6111 71.3891 26.9632 71.25 27.3716 71.25C27.78 71.25 28.1292 71.3891 28.4192 71.6673C28.7151 71.9454 28.8631 72.2798 28.8631 72.6705C28.8631 73.0611 28.7151 73.3955 28.4192 73.6737C28.1292 73.9518 27.78 74.0909 27.3716 74.0909ZM32.2389 90V76.3636H34.2631V78.4943H34.4406C34.7247 77.7663 35.1834 77.2011 35.8167 76.7987C36.45 76.3903 37.2105 76.1861 38.0983 76.1861C38.9979 76.1861 39.7466 76.3903 40.3444 76.7987C40.9481 77.2011 41.4186 77.7663 41.7559 78.4943H41.898C42.2472 77.79 42.771 77.2307 43.4694 76.8164C44.1678 76.3962 45.0052 76.1861 45.9818 76.1861C47.201 76.1861 48.1983 76.5678 48.9736 77.3313C49.749 78.0889 50.1366 79.2696 50.1366 80.8736V90H48.0415V80.8736C48.0415 79.8674 47.7662 79.1483 47.2158 78.7163C46.6654 78.2842 46.0173 78.0682 45.2716 78.0682C44.3128 78.0682 43.57 78.3582 43.0432 78.9382C42.5165 79.5123 42.2531 80.2403 42.2531 81.1222V90H40.1224V80.6605C40.1224 79.8852 39.8709 79.2608 39.3678 78.7873C38.8647 78.3079 38.2166 78.0682 37.4236 78.0682C36.8791 78.0682 36.3701 78.2132 35.8966 78.5032C35.429 78.7932 35.0502 79.1957 34.7602 79.7106C34.4761 80.2196 34.3341 80.8085 34.3341 81.4773V90H32.2389ZM57.9802 90.3196C57.1161 90.3196 56.3319 90.1568 55.6276 89.8313C54.9233 89.4999 54.364 89.0234 53.9497 88.402C53.5354 87.7746 53.3282 87.017 53.3282 86.1293C53.3282 85.348 53.4821 84.7147 53.7899 84.2294C54.0976 83.7382 54.509 83.3535 55.0239 83.0753C55.5388 82.7971 56.107 82.59 56.7284 82.4538C57.3558 82.3118 57.9861 82.1993 58.6194 82.1165C59.448 82.0099 60.1198 81.93 60.6347 81.8768C61.1555 81.8176 61.5343 81.7199 61.771 81.5838C62.0137 81.4477 62.135 81.2109 62.135 80.8736V80.8026C62.135 79.9266 61.8953 79.246 61.4159 78.7607C60.9424 78.2753 60.2233 78.0327 59.2586 78.0327C58.2584 78.0327 57.4742 78.2517 56.906 78.6896C56.3378 79.1276 55.9383 79.5952 55.7075 80.0923L53.7188 79.3821C54.074 78.5535 54.5474 77.9084 55.1393 77.4467C55.7371 76.9792 56.3881 76.6536 57.0924 76.4702C57.8026 76.2808 58.501 76.1861 59.1876 76.1861C59.6256 76.1861 60.1286 76.2393 60.6968 76.3459C61.2709 76.4465 61.8243 76.6566 62.357 76.9762C62.8956 77.2958 63.3424 77.7782 63.6975 78.4233C64.0526 79.0684 64.2302 79.9325 64.2302 81.0156V90H62.135V88.1534H62.0285C61.8865 88.4493 61.6497 88.766 61.3183 89.1033C60.9868 89.4407 60.5459 89.7277 59.9955 89.9645C59.445 90.2012 58.7733 90.3196 57.9802 90.3196ZM58.2998 88.4375C59.1284 88.4375 59.8268 88.2747 60.395 87.9492C60.9691 87.6237 61.4011 87.2035 61.6911 86.6886C61.9871 86.1737 62.135 85.6321 62.135 85.0639V83.1463C62.0463 83.2528 61.8509 83.3505 61.5491 83.4393C61.2532 83.5221 60.9099 83.5961 60.5193 83.6612C60.1346 83.7204 59.7587 83.7737 59.3918 83.821C59.0307 83.8625 58.7378 83.898 58.5129 83.9276C57.9684 83.9986 57.4594 84.114 56.9859 84.2738C56.5183 84.4277 56.1395 84.6615 55.8495 84.9751C55.5654 85.2829 55.4234 85.7031 55.4234 86.2358C55.4234 86.9638 55.6927 87.5142 56.2313 87.8871C56.7758 88.254 57.4653 88.4375 58.2998 88.4375ZM73.9847 76.3636V78.1392H66.918V76.3636H73.9847ZM68.9776 73.0966H71.0728V86.0938C71.0728 86.6856 71.1586 87.1295 71.3303 87.4254C71.5078 87.7154 71.7327 87.9107 72.005 88.0114C72.2831 88.1061 72.5761 88.1534 72.8839 88.1534C73.1147 88.1534 73.3041 88.1416 73.4521 88.1179C73.6 88.0883 73.7184 88.0646 73.8072 88.0469L74.2333 89.929C74.0913 89.9822 73.893 90.0355 73.6385 90.0888C73.384 90.148 73.0614 90.1776 72.6708 90.1776C72.079 90.1776 71.4989 90.0503 70.9308 89.7958C70.3685 89.5413 69.9009 89.1536 69.5281 88.6328C69.1611 88.112 68.9776 87.455 68.9776 86.6619V73.0966ZM77.1364 90V76.3636H79.2315V90H77.1364ZM78.2017 74.0909C77.7933 74.0909 77.4412 73.9518 77.1452 73.6737C76.8552 73.3955 76.7102 73.0611 76.7102 72.6705C76.7102 72.2798 76.8552 71.9454 77.1452 71.6673C77.4412 71.3891 77.7933 71.25 78.2017 71.25C78.6101 71.25 78.9593 71.3891 79.2493 71.6673C79.5452 71.9454 79.6932 72.2798 79.6932 72.6705C79.6932 73.0611 79.5452 73.3955 79.2493 73.6737C78.9593 73.9518 78.6101 74.0909 78.2017 74.0909ZM82.6784 90V88.402L90.4198 78.4588V78.3168H82.9269V76.3636H93.1187V78.0327L85.5903 87.9048V88.0469H93.3673V90H82.6784ZM100.607 90.3196C99.743 90.3196 98.9588 90.1568 98.2545 89.8313C97.5502 89.4999 96.9909 89.0234 96.5766 88.402C96.1623 87.7746 95.9552 87.017 95.9552 86.1293C95.9552 85.348 96.109 84.7147 96.4168 84.2294C96.7246 83.7382 97.1359 83.3535 97.6508 83.0753C98.1657 82.7971 98.7339 82.59 99.3554 82.4538C99.9827 82.3118 100.613 82.1993 101.246 82.1165C102.075 82.0099 102.747 81.93 103.262 81.8768C103.782 81.8176 104.161 81.7199 104.398 81.5838C104.641 81.4477 104.762 81.2109 104.762 80.8736V80.8026C104.762 79.9266 104.522 79.246 104.043 78.7607C103.569 78.2753 102.85 78.0327 101.886 78.0327C100.885 78.0327 100.101 78.2517 99.5329 78.6896C98.9648 79.1276 98.5653 79.5952 98.3344 80.0923L96.3458 79.3821C96.7009 78.5535 97.1744 77.9084 97.7662 77.4467C98.364 76.9792 99.0151 76.6536 99.7194 76.4702C100.43 76.2808 101.128 76.1861 101.815 76.1861C102.253 76.1861 102.756 76.2393 103.324 76.3459C103.898 76.4465 104.451 76.6566 104.984 76.9762C105.523 77.2958 105.969 77.7782 106.324 78.4233C106.68 79.0684 106.857 79.9325 106.857 81.0156V90H104.762V88.1534H104.655C104.513 88.4493 104.277 88.766 103.945 89.1033C103.614 89.4407 103.173 89.7277 102.622 89.9645C102.072 90.2012 101.4 90.3196 100.607 90.3196ZM100.927 88.4375C101.755 88.4375 102.454 88.2747 103.022 87.9492C103.596 87.6237 104.028 87.2035 104.318 86.6886C104.614 86.1737 104.762 85.6321 104.762 85.0639V83.1463C104.673 83.2528 104.478 83.3505 104.176 83.4393C103.88 83.5221 103.537 83.5961 103.146 83.6612C102.762 83.7204 102.386 83.7737 102.019 83.821C101.658 83.8625 101.365 83.898 101.14 83.9276C100.595 83.9986 100.086 84.114 99.6128 84.2738C99.1453 84.4277 98.7665 84.6615 98.4765 84.9751C98.1924 85.2829 98.0503 85.7031 98.0503 86.2358C98.0503 86.9638 98.3196 87.5142 98.8582 87.8871C99.4027 88.254 100.092 88.4375 100.927 88.4375ZM116.221 90.2841C114.943 90.2841 113.842 89.9822 112.919 89.3786C111.995 88.7749 111.285 87.9433 110.788 86.8839C110.291 85.8245 110.042 84.6141 110.042 83.2528C110.042 81.8679 110.297 80.6457 110.806 79.5863C111.32 78.521 112.037 77.6894 112.954 77.0916C113.877 76.4879 114.954 76.1861 116.186 76.1861C117.144 76.1861 118.008 76.3636 118.778 76.7188C119.547 77.0739 120.178 77.571 120.669 78.2102C121.16 78.8494 121.465 79.5952 121.583 80.4474H119.488C119.328 79.826 118.973 79.2756 118.423 78.7962C117.878 78.3108 117.144 78.0682 116.221 78.0682C115.404 78.0682 114.688 78.2812 114.073 78.7074C113.463 79.1276 112.987 79.7224 112.643 80.4918C112.306 81.2553 112.137 82.152 112.137 83.1818C112.137 84.2353 112.303 85.1527 112.634 85.9339C112.972 86.7152 113.445 87.3219 114.055 87.7539C114.67 88.186 115.392 88.402 116.221 88.402C116.766 88.402 117.26 88.3073 117.704 88.1179C118.148 87.9285 118.523 87.6562 118.831 87.3011C119.139 86.946 119.358 86.5199 119.488 86.0227H121.583C121.465 86.8277 121.172 87.5527 120.704 88.1978C120.243 88.837 119.63 89.346 118.867 89.7248C118.109 90.0977 117.227 90.2841 116.221 90.2841ZM115.227 89.929H116.967L116.825 90.6392C117.286 90.7102 117.71 90.9026 118.094 91.2163C118.479 91.5359 118.671 92.0419 118.671 92.7344C118.671 93.4979 118.355 94.1193 117.721 94.5987C117.094 95.084 116.168 95.3267 114.943 95.3267L114.872 93.9418C115.422 93.9418 115.878 93.853 116.239 93.6754C116.606 93.5038 116.789 93.2138 116.789 92.8054C116.789 92.397 116.638 92.1188 116.336 91.9709C116.035 91.8229 115.546 91.7223 114.872 91.669L115.227 89.929ZM128.659 90.3196C127.795 90.3196 127.011 90.1568 126.306 89.8313C125.602 89.4999 125.043 89.0234 124.628 88.402C124.214 87.7746 124.007 87.017 124.007 86.1293C124.007 85.348 124.161 84.7147 124.469 84.2294C124.776 83.7382 125.188 83.3535 125.703 83.0753C126.218 82.7971 126.786 82.59 127.407 82.4538C128.035 82.3118 128.665 82.1993 129.298 82.1165C130.127 82.0099 130.798 81.93 131.313 81.8768C131.834 81.8176 132.213 81.7199 132.45 81.5838C132.692 81.4477 132.814 81.2109 132.814 80.8736V80.8026C132.814 79.9266 132.574 79.246 132.095 78.7607C131.621 78.2753 130.902 78.0327 129.937 78.0327C128.937 78.0327 128.153 78.2517 127.585 78.6896C127.017 79.1276 126.617 79.5952 126.386 80.0923L124.398 79.3821C124.753 78.5535 125.226 77.9084 125.818 77.4467C126.416 76.9792 127.067 76.6536 127.771 76.4702C128.481 76.2808 129.18 76.1861 129.866 76.1861C130.304 76.1861 130.807 76.2393 131.376 76.3459C131.95 76.4465 132.503 76.6566 133.036 76.9762C133.574 77.2958 134.021 77.7782 134.376 78.4233C134.731 79.0684 134.909 79.9325 134.909 81.0156V90H132.814V88.1534H132.707C132.565 88.4493 132.328 88.766 131.997 89.1033C131.666 89.4407 131.225 89.7277 130.674 89.9645C130.124 90.2012 129.452 90.3196 128.659 90.3196ZM128.979 88.4375C129.807 88.4375 130.506 88.2747 131.074 87.9492C131.648 87.6237 132.08 87.2035 132.37 86.6886C132.666 86.1737 132.814 85.6321 132.814 85.0639V83.1463C132.725 83.2528 132.53 83.3505 132.228 83.4393C131.932 83.5221 131.589 83.5961 131.198 83.6612C130.813 83.7204 130.437 83.7737 130.07 83.821C129.709 83.8625 129.416 83.898 129.192 83.9276C128.647 83.9986 128.138 84.114 127.665 84.2738C127.197 84.4277 126.818 84.6615 126.528 84.9751C126.244 85.2829 126.102 85.7031 126.102 86.2358C126.102 86.9638 126.371 87.5142 126.91 87.8871C127.454 88.254 128.144 88.4375 128.979 88.4375ZM127.274 74.7301L125.64 74.6591C125.64 73.7536 125.898 73.0137 126.413 72.4396C126.934 71.8596 127.576 71.5696 128.339 71.5696C128.677 71.5696 128.976 71.6288 129.236 71.7472C129.496 71.8596 129.745 71.9898 129.982 72.1378C130.218 72.2857 130.461 72.4189 130.71 72.5373C130.964 72.6497 131.251 72.706 131.571 72.706C131.908 72.706 132.192 72.5758 132.423 72.3153C132.66 72.049 132.778 71.7294 132.778 71.3565L134.376 71.4986C134.376 72.4219 134.116 73.1558 133.595 73.7003C133.08 74.2448 132.441 74.517 131.677 74.517C131.269 74.517 130.932 74.4608 130.665 74.3484C130.399 74.23 130.162 74.0968 129.955 73.9489C129.748 73.8009 129.529 73.6707 129.298 73.5582C129.067 73.4399 128.783 73.3807 128.446 73.3807C128.108 73.3807 127.827 73.5138 127.602 73.7802C127.383 74.0406 127.274 74.3572 127.274 74.7301ZM144.273 90.2841C143.042 90.2841 141.962 89.9911 141.032 89.4052C140.109 88.8192 139.387 87.9995 138.866 86.946C138.351 85.8925 138.094 84.6615 138.094 83.2528C138.094 81.8324 138.351 80.5924 138.866 79.533C139.387 78.4736 140.109 77.6509 141.032 77.065C141.962 76.479 143.042 76.1861 144.273 76.1861C145.504 76.1861 146.581 76.479 147.504 77.065C148.434 77.6509 149.156 78.4736 149.671 79.533C150.191 80.5924 150.452 81.8324 150.452 83.2528C150.452 84.6615 150.191 85.8925 149.671 86.946C149.156 87.9995 148.434 88.8192 147.504 89.4052C146.581 89.9911 145.504 90.2841 144.273 90.2841ZM144.273 88.402C145.208 88.402 145.977 88.1623 146.581 87.6829C147.185 87.2035 147.632 86.5732 147.922 85.7919C148.212 85.0107 148.357 84.1643 148.357 83.2528C148.357 82.3414 148.212 81.4921 147.922 80.7049C147.632 79.9177 147.185 79.2815 146.581 78.7962C145.977 78.3108 145.208 78.0682 144.273 78.0682C143.338 78.0682 142.568 78.3108 141.965 78.7962C141.361 79.2815 140.914 79.9177 140.624 80.7049C140.334 81.4921 140.189 82.3414 140.189 83.2528C140.189 84.1643 140.334 85.0107 140.624 85.7919C140.914 86.5732 141.361 87.2035 141.965 87.6829C142.568 88.1623 143.338 88.402 144.273 88.402Z" fill="white"/>
</svg>
